<svg width="71" height="75" viewBox="0 0 71 75" fill="none" xmlns="http://www.w3.org/2000/svg">
<path d="M2 11.5951C6.16667 8.59511 14.9 7.8 22.5 15C27.5 20.4991 30 27.0942 30 31.5942" stroke="white" stroke-width="3" stroke-linecap="round"/>
<path d="M68.9998 13.0937C66.8331 10.7604 60.9232 9.70057 55.3232 10.5006C48.3232 11.5006 41.3232 19.9996 40.8232 26.9996C40.4232 32.5996 40.8331 33.5928 40.9998 35.0928" stroke="white" stroke-width="3" stroke-linecap="round"/>
<path d="M25 42C25.7755 44.2618 26.5511 45.8183 30.0403 47.0587C36.0594 49.1983 42.0617 47.764 44 42" stroke="white" stroke-width="3" stroke-linecap="round"/>
<path d="M20.0194 65.1884C19.5211 64.5112 26.5439 55.739 28.5456 55.068C29.5542 54.7299 32.0419 56.4279 34.5419 56.4355C37.0419 56.4432 39.3022 54.76 40.0456 55.0977C41.5438 55.7783 51.5227 64.0457 50.5208 64.7191L48.7427 67.3582C41.564 78.0133 25.516 76.801 20.0194 65.1884Z" fill="white"/>
<path d="M9 24C14 24 16.8168 25.5 20 25.5M20 25.5C21.0263 25.5 8.65911 30 10 30L20 25.5Z" stroke="white" stroke-width="3" stroke-linecap="round"/>
<path d="M61.0605 24C56.0605 24 53.2438 25.5 50.0605 25.5M50.0605 25.5C49.0343 25.5 61.4014 30 60.0605 30L50.0605 25.5Z" stroke="white" stroke-width="3" stroke-linecap="round"/>
<circle cx="34.5" cy="2.5" r="2.5" fill="white"/>
</svg>
