<svg width="71" height="68" viewBox="0 0 71 68" fill="none" xmlns="http://www.w3.org/2000/svg">
<path d="M2 11.5946C6.16667 8.59463 16.4 4.39463 24 11.5946C29 17.0937 30 27.0938 30 31.5938" stroke="white" stroke-width="3" stroke-linecap="round"/>
<path d="M69.0002 13.0947C66.8335 10.7613 61.1002 6.29467 55.5002 7.09467C48.5002 8.09467 41.5002 16.5938 41.0002 23.5938C40.6002 29.1937 40.8335 33.5938 41.0002 35.0938" stroke="white" stroke-width="3" stroke-linecap="round"/>
<path d="M25 42C25.7755 44.2618 26.5511 45.8183 30.0403 47.0587C36.0594 49.1983 42.0617 47.764 44 42" stroke="white" stroke-width="3" stroke-linecap="round"/>
<path d="M28.5459 54.0555C26.5446 54.5504 19.5277 61.0321 20.0265 61.5332C20.5252 62.0344 49.526 61.704 50.5275 61.2067C51.5289 60.7095 41.5445 54.5895 40.0458 54.0852C39.3023 53.835 37.0431 55.0781 34.5431 55.0708C32.0431 55.0634 29.5542 53.8062 28.5459 54.0555Z" fill="white"/>
<path d="M8 25.0004C13.5 24.4995 15.5 24.5 21 25.0004" stroke="white" stroke-width="3" stroke-linecap="round"/>
<path d="M32.5189 64.6577C31.319 64.6546 30.0147 66.3179 29.5125 67.1499C31.0099 68.1534 40.0112 67.6775 40.0125 67.1771C40.0138 66.6766 38.0176 65.1719 37.5189 64.6706C37.0202 64.1693 34.0189 64.6616 32.5189 64.6577Z" fill="white"/>
<path d="M48 25.0004C53.5 24.4995 55.5 24.5 61 25.0004" stroke="white" stroke-width="3" stroke-linecap="round"/>
<circle cx="34.5" cy="2.5" r="2.5" fill="white"/>
</svg>
